<svg xmlns="http://www.w3.org/2000/svg" width="1833.013" height="515.195" viewBox="0 0 484.985 136.312"><defs><filter id="a" width="1.001" height="1.003" x="0" y="-.001" style="color-interpolation-filters:sRGB"><feColorMatrix result="fbSourceGraphic" values="1 0 0 0 0 0 1 0 0 0 0 0 1 0 0 -0.21 -0.72 -0.07 2 0"/><feColorMatrix in="fbSourceGraphic" result="fbSourceGraphicAlpha" values="0 0 0 -1 0 0 0 0 -1 0 0 0 0 -1 0 0 0 0 1 0"/><feColorMatrix in="fbSourceGraphic" result="fbSourceGraphic" values="1 0 0 0 0 0 1 0 0 0 0 0 1 0 0 -0.21 -0.72 -0.07 2 0"/><feColorMatrix in="fbSourceGraphic" result="fbSourceGraphicAlpha" values="0 0 0 -1 0 0 0 0 -1 0 0 0 0 -1 0 0 0 0 1 0"/><feColorMatrix in="fbSourceGraphic" result="color2" values="-1 0 0 0 1 0 -1 0 0 1 0 0 -1 0 1 -0.21 -0.72 -0.07 2 0"/></filter></defs><path d="M257.686.764a15.75 15.75 0 0 0-1.551.074V.836a14.815 14.815 0 0 0-1.465.223l-.04.005-.034.008a14.396 14.396 0 0 0-4.211 1.58 16.084 16.084 0 0 0-1.324.832 17.64 17.64 0 0 0-1.28.985 19.75 19.75 0 0 0-1.23 1.135L5.568 246.586c-.041.042-.076.084-.117.127-.04.04-.084.074-.125.115l-.01.01a15.488 15.488 0 0 0-2.42 3.129 14.682 14.682 0 0 0-2.181 7.77c0 4.197 1.615 7.91 4.844 11.138l241.062 241.06.162.165c3.068 3.067 6.78 4.52 11.139 4.359.113 0 .225-.006.338-.008 3.764-.04 7.031-1.33 9.795-3.875.104-.093.208-.188.31-.283.07-.067.145-.125.213-.193.028-.029.05-.058.078-.086.053-.053.111-.104.164-.157l98.844-98.843c3.067-3.068 4.602-6.701 4.602-10.899.16-4.359-1.292-8.071-4.36-11.138-3.228-3.229-6.941-4.844-11.138-4.844-4.198 0-7.912 1.615-11.141 4.844l-87.945 87.945L38.494 257.734 257.678 38.551l87.947 87.945c3.067 3.067 6.702 4.6 10.9 4.602 4.358.16 8.071-1.292 11.14-4.36 3.228-3.228 4.84-6.941 4.84-11.138 0-4.198-1.612-7.912-4.84-11.141L268.817 5.615a19.998 19.998 0 0 0-1.234-1.136 17.484 17.484 0 0 0-1.28-.983 15.97 15.97 0 0 0-1.324-.834 15.04 15.04 0 0 0-1.367-.68l-.002-.002a14.532 14.532 0 0 0-1.382-.515c-.015 0-.02-.008-.03-.012l-.004-.002c-.005-.005-.017-.004-.023-.008a14.45 14.45 0 0 0-1.412-.365c-.004-.004-.015-.002-.022-.006l-.002-.002c-.003-.003-.012.001-.015-.002-.484-.099-.976-.17-1.475-.22-.003-.003-.004-.005-.014 0l-.003-.004a15.723 15.723 0 0 0-1.541-.078l-.002-.002zm515.168 128.334c-4.34 0-7.993 1.598-10.961 4.793-2.969 2.968-4.454 6.62-4.454 10.959v222.255c0 4.34 1.485 7.993 4.454 10.961 2.967 2.968 6.621 4.45 10.959 4.452h.002c4.337-.001 7.987-1.484 10.955-4.452 3.197-2.968 4.796-6.622 4.796-10.96v-222.26c0-4.566-1.483-8.333-4.45-11.301-2.969-2.966-6.736-4.447-11.301-4.447zm259.583 0c-4.338 0-7.992 1.598-10.96 4.793-2.969 2.968-4.452 6.62-4.452 10.959v222.255c0 4.34 1.484 7.993 4.45 10.961 2.97 2.969 6.622 4.452 10.959 4.452 4.339 0 7.992-1.483 10.96-4.452 3.196-2.968 4.793-6.622 4.793-10.96v-8.9c16.668 17.35 36.19 26.024 58.565 26.024 14.153 0 27.508-3.539 40.066-10.617 12.788-7.304 23.062-17.806 30.823-31.506 7.99-13.926 11.984-30.136 11.984-48.63 0-18.492-3.995-34.588-11.984-48.288-7.764-13.926-18.038-24.426-30.823-31.501-12.558-7.308-25.913-10.961-40.066-10.961-22.375 0-41.897 8.674-58.564 26.025v-83.906c0-4.566-1.484-8.333-4.45-11.301-2.97-2.966-6.737-4.447-11.3-4.447zm426.903 0c-4.34 0-7.993 1.598-10.961 4.793-2.968 2.968-4.453 6.62-4.453 10.959v222.255c0 4.34 1.485 7.993 4.453 10.961 2.967 2.968 6.622 4.45 10.959 4.452h.002c4.337-.001 7.99-1.484 10.957-4.452 3.197-2.968 4.795-6.622 4.795-10.96v-222.26c0-4.566-1.483-8.333-4.451-11.301-2.969-2.966-6.736-4.447-11.301-4.447zM400.412 143.12c-.267-.003-.536.002-.808.012-4.199.002-7.83 1.533-10.899 4.601l-98.848 98.846c-3.065 3.065-4.598 6.7-4.601 10.899-.158 4.358 1.293 8.07 4.361 11.138 3.229 3.229 6.94 4.847 11.139 4.844 4.196 0 7.912-1.615 11.14-4.844l74.061-74.06 24.787-24.782c3.229-3.228 4.84-6.946 4.838-11.144.005-4.196-1.61-7.91-4.842-11.14-2.874-2.875-6.317-4.33-10.328-4.37zm48.977 49.31c-4.199.003-7.913 1.619-11.139 4.844l-74.06 74.06-24.788 24.788c-3.228 3.228-4.843 6.943-4.843 11.139 0 4.2 1.615 7.912 4.843 11.14 3.068 3.068 6.782 4.52 11.141 4.358 4.196 0 7.83-1.534 10.898-4.602l98.844-98.844c3.068-3.068 4.599-6.7 4.602-10.898.16-4.356-1.294-8.07-4.362-11.139-3.228-3.228-6.938-4.843-11.136-4.845zm223.46 10.292c-16.435 0-31.616 3.654-45.542 10.96-13.93 7.308-25.117 17.81-33.563 31.506-8.22 13.697-12.328 29.793-12.328 48.288 0 18.494 4.109 34.59 12.328 48.287 8.446 13.697 19.634 24.198 33.563 31.506 13.926 7.307 29.108 10.96 45.547 10.96 12.099 0 22.486-1.484 31.162-4.453 8.904-3.197 17.124-7.192 24.658-11.984 4.566-2.968 6.847-6.964 6.847-11.988 0-3.425-1.368-6.506-4.107-9.244-2.51-2.969-5.477-4.454-8.904-4.454-2.512 0-5.024.686-7.533 2.057-7.534 3.88-14.042 6.734-19.522 8.56-5.253 1.6-11.874 2.401-19.861 2.401-19.636 0-35.047-5.594-46.235-16.781-11.187-11.417-16.78-26.372-16.78-44.864 0-18.494 5.593-33.336 16.78-44.523 11.188-11.414 26.599-17.121 46.235-17.121 7.99 0 14.61.912 19.861 2.736 5.48 1.6 11.988 4.34 19.522 8.221 2.51 1.37 5.02 2.057 7.533 2.057 3.424 0 6.392-1.372 8.904-4.114 2.739-2.965 4.107-6.16 4.107-9.588 0-5.021-2.281-9.016-6.847-11.984-7.534-4.795-15.754-8.677-24.658-11.643-8.676-3.2-19.064-4.798-31.166-4.798zm1096.756 0c-16.435 0-31.618 3.654-45.544 10.96-13.927 7.308-25.112 17.81-33.561 31.506-8.22 13.697-12.33 29.793-12.33 48.288 0 18.494 4.11 34.59 12.33 48.287 8.448 13.697 19.634 24.198 33.56 31.506 13.927 7.307 29.109 10.96 45.547 10.96 12.1 0 22.487-1.484 31.163-4.453 8.904-3.197 17.124-7.192 24.658-11.984 4.568-2.968 6.853-6.964 6.853-11.988 0-3.425-1.372-6.506-4.113-9.244-2.51-2.969-5.478-4.454-8.904-4.454-2.51 0-5.021.686-7.534 2.057-7.533 3.88-14.04 6.734-19.521 8.56-5.251 1.6-11.871 2.401-19.861 2.401-19.636 0-35.047-5.594-46.235-16.781-11.187-11.417-16.781-26.372-16.781-44.864 0-18.494 5.594-33.336 16.781-44.523 11.188-11.414 26.599-17.121 46.235-17.121 7.99 0 14.61.912 19.861 2.736 5.48 1.6 11.988 4.34 19.521 8.221 2.513 1.37 5.024 2.057 7.534 2.057 3.426 0 6.394-1.372 8.904-4.114 2.741-2.965 4.113-6.16 4.113-9.588 0-5.021-2.285-9.016-6.853-11.984-7.534-4.795-15.754-8.677-24.659-11.643-8.675-3.2-19.062-4.798-31.164-4.798zm-431.158.004c-18.036 0-33.216 4.222-45.543 12.668-12.329 8.448-21.462 19.521-27.398 33.218-5.937 13.7-8.904 28.654-8.904 44.864 0 28.767 7.76 51.142 23.285 67.125 15.753 15.753 37.557 23.628 65.412 23.628 13.697 0 24.885-1.255 33.562-3.767 8.676-2.51 17.467-6.277 26.371-11.3 5.934-3.425 8.9-7.65 8.9-12.67 0-3.884-1.37-7.08-4.109-9.593-2.738-2.51-5.934-3.765-9.587-3.765-2.283 0-4.338.457-6.164 1.369a103.481 103.481 0 0 1-21.235 7.877c-7.078 1.827-15.41 2.74-24.998 2.74-18.036 0-32.075-4.453-42.121-13.357-10.046-8.902-15.984-21.344-17.81-37.327h116.095c4.795 0 8.562-1.484 11.3-4.453 2.97-2.968 4.454-6.622 4.454-10.96 0-15.524-3.197-29.793-9.59-42.807-6.392-13.244-15.751-23.745-28.08-31.506-12.329-7.99-26.943-11.984-43.84-11.984zm244.862 0c-18.036 0-33.219 4.222-45.545 12.668-12.332 8.448-21.464 19.521-27.4 33.218-5.937 13.7-8.905 28.654-8.905 44.864 0 28.767 7.763 51.142 23.289 67.125 15.753 15.753 37.556 23.628 65.408 23.628 13.7 0 24.888-1.255 33.563-3.767 8.675-2.51 17.464-6.277 26.369-11.3 5.936-3.425 8.904-7.65 8.904-12.67 0-3.884-1.368-7.08-4.107-9.593-2.742-2.51-5.938-3.765-9.592-3.765-2.28 0-4.335.457-6.162 1.369a103.465 103.465 0 0 1-21.233 7.877c-7.077 1.827-15.412 2.74-25.001 2.74-18.036 0-32.078-4.453-42.124-13.357-10.045-8.902-15.98-21.344-17.804-37.327h116.095c4.793 0 8.56-1.484 11.301-4.453 2.966-2.968 4.447-6.622 4.447-10.96 0-15.524-3.195-29.793-9.587-42.807-6.393-13.244-15.754-23.745-28.082-31.506-12.33-7.99-26.94-11.984-43.834-11.984zm-743.68 1.71c-4.336 0-8.103 1.484-11.3 4.45-2.97 2.97-4.452 6.624-4.452 10.96v97.262c0 12.327 2.396 23.627 7.191 33.903 5.022 10.272 12.1 18.378 21.235 24.314 9.36 5.937 20.317 8.904 32.873 8.904 13.7 0 25.573-2.854 35.619-8.564 10.046-5.707 19.407-13.354 28.082-22.941v14.04c0 4.337 1.482 8.104 4.447 11.301 3.2 2.969 6.967 4.452 11.301 4.452 4.339 0 7.993-1.483 10.96-4.452 2.97-3.197 4.454-6.965 4.454-11.304v-146.91c0-4.34-1.483-7.993-4.45-10.961-2.97-2.969-6.624-4.453-10.96-4.453-4.339 0-8.106 1.483-11.3 4.449-2.97 2.97-4.452 6.624-4.452 10.96v102.739c-7.992 10.046-16.554 18.038-25.686 23.975-8.904 5.936-19.064 8.904-30.478 8.904-25.114 0-37.67-13.928-37.67-41.783v-93.83c0-4.34-1.485-7.993-4.453-10.961-2.968-2.969-6.622-4.453-10.961-4.453zm498.822 24.655c7.763 0 15.412 1.827 22.946 5.48 7.533 3.427 13.812 8.908 18.833 16.442 5.252 7.534 8.22 16.894 8.905 28.082h-101.028c.686-11.188 3.54-20.548 8.561-28.082 5.024-7.534 11.304-13.015 18.838-16.442 7.534-3.653 15.182-5.48 22.945-5.48zm244.861 0c7.761 0 15.408 1.827 22.942 5.48 7.534 3.427 13.812 8.908 18.836 16.442 5.25 7.534 8.219 16.894 8.904 28.082H1532.97c.683-11.188 3.536-20.548 8.56-28.082 5.022-7.534 11.3-13.015 18.834-16.442 7.537-3.653 15.186-5.48 22.95-5.48zm-481.013 2.74c16.894 0 30.477 5.366 40.75 16.098 10.275 10.731 15.414 25.915 15.414 45.55 0 19.634-5.139 34.815-15.414 45.543-10.273 10.732-23.856 16.098-40.75 16.098-10.502 0-20.432-2.284-29.793-6.85-9.132-4.794-17.238-11.072-24.319-18.835v-71.918c7.078-7.761 15.185-13.924 24.319-18.493 9.36-4.795 19.29-7.193 29.793-7.193zm-603.365 10.143c-4.199.002-7.915 1.618-11.141 4.843l-74.06 74.06-24.786 24.792c-3.228 3.228-4.844 6.94-4.842 11.139-.002 4.198 1.611 7.907 4.842 11.138 3.066 3.066 6.781 4.52 11.143 4.36 4.193-.003 7.826-1.538 10.894-4.606l98.844-98.842c3.068-3.068 4.601-6.701 4.604-10.9.16-4.356-1.296-8.07-4.364-11.139-3.228-3.228-6.936-4.843-11.134-4.845z" style="font-weight:700;font-size:90.61px;line-height:1.25;font-family:&quot;Varela Round&quot;;-inkscape-font-specification:&quot;Varela Round Bold&quot;;letter-spacing:-4.53072px;word-spacing:-5.86879px;fill:#1e1f1d;stroke:#1e1f1d;stroke-width:1.474;stroke-miterlimit:4;stroke-dasharray:none;stroke-opacity:1;filter:url(#a)" transform="scale(.26458)"/></svg>