<svg xmlns="http://www.w3.org/2000/svg" width="1833.013" height="515.195" viewBox="0 0 484.985 136.312"><path d="M257.707.746a15.75 15.75 0 0 0-1.549.074l-.002-.002a14.815 14.815 0 0 0-1.465.221l-.039.008-.035.006a14.396 14.396 0 0 0-4.21 1.58 16.084 16.084 0 0 0-1.325.834 17.64 17.64 0 0 0-1.28.984 19.75 19.75 0 0 0-1.23 1.135L5.59 246.568c-.042.042-.074.085-.115.127-.041.041-.086.075-.127.116l-.008.01a15.5 15.5 0 0 0-2.422 3.128 14.682 14.682 0 0 0-2.182 7.77c0 4.197 1.615 7.908 4.844 11.136l241.063 241.063c.053.056.107.108.162.162 3.067 3.067 6.782 4.523 11.14 4.361.113 0 .226-.005.338-.007 3.765-.04 7.03-1.331 9.793-3.875.105-.094.21-.188.313-.284.07-.067.144-.124.213-.193.028-.028.05-.06.078-.088.053-.053.109-.101.162-.154l98.846-98.844c3.067-3.067 4.6-6.701 4.6-10.898.16-4.36-1.293-8.074-4.36-11.141-3.229-3.229-6.94-4.842-11.137-4.842s-7.912 1.615-11.14 4.844l-87.948 87.945L38.516 257.717 257.7 38.53l87.947 87.948c3.068 3.067 6.7 4.598 10.899 4.6 4.358.16 8.07-1.292 11.139-4.36 3.228-3.229 4.843-6.94 4.843-11.137s-1.615-7.912-4.843-11.14L268.842 5.595a19.962 19.962 0 0 0-1.235-1.135 17.484 17.484 0 0 0-1.28-.984c-.434-.303-.874-.58-1.323-.832a15.04 15.04 0 0 0-1.37-.682h-.001a14.511 14.511 0 0 0-1.381-.518c-.014 0-.021-.005-.031-.01l-.002-.003c-.006-.006-.02-.003-.026-.006a14.45 14.45 0 0 0-1.41-.365c-.004-.005-.017-.003-.023-.006l-.002-.002c-.004-.004-.013 0-.016-.002a14.66 14.66 0 0 0-1.472-.22c-.003-.004-.007-.008-.016-.003l-.004-.004a15.723 15.723 0 0 0-1.54-.076l-.003-.002zM772.85 129.098c-4.34 0-7.993 1.598-10.961 4.793-2.969 2.968-4.453 6.62-4.453 10.959v222.255c0 4.34 1.484 7.993 4.453 10.961 2.967 2.968 6.621 4.45 10.959 4.452h.002c4.337-.001 7.99-1.484 10.957-4.452 3.197-2.968 4.795-6.622 4.795-10.96v-222.26c0-4.566-1.483-8.333-4.452-11.301-2.968-2.966-6.735-4.447-11.3-4.447zm259.584 0c-4.34 0-7.991 1.598-10.96 4.793-2.968 2.968-4.453 6.62-4.453 10.959v222.255c0 4.34 1.484 7.993 4.45 10.961 2.97 2.969 6.622 4.452 10.959 4.452 4.339 0 7.992-1.483 10.96-4.452 3.196-2.968 4.794-6.622 4.794-10.96v-8.9c16.667 17.35 36.19 26.024 58.564 26.024 14.153 0 27.508-3.539 40.066-10.617 12.788-7.304 23.062-17.806 30.823-31.506 7.99-13.926 11.984-30.136 11.984-48.63 0-18.492-3.994-34.588-11.984-48.288-7.763-13.926-18.038-24.426-30.822-31.501-12.559-7.308-25.914-10.961-40.067-10.961-22.375 0-41.897 8.674-58.564 26.025v-83.906c0-4.566-1.484-8.333-4.45-11.301-2.97-2.966-6.737-4.447-11.3-4.447zm426.902 0c-4.339 0-7.993 1.598-10.961 4.793-2.968 2.968-4.453 6.62-4.453 10.959v222.255c0 4.34 1.485 7.993 4.453 10.961 2.967 2.968 6.622 4.45 10.959 4.452h.002c4.337-.001 7.99-1.484 10.957-4.452 3.197-2.968 4.795-6.622 4.795-10.96v-222.26c0-4.566-1.483-8.333-4.451-11.301-2.968-2.966-6.735-4.447-11.301-4.447zM400.412 143.12c-.267-.003-.536.002-.808.012-4.199.002-7.83 1.533-10.899 4.601l-98.848 98.846c-3.065 3.065-4.598 6.7-4.601 10.899-.158 4.358 1.293 8.07 4.361 11.138 3.229 3.229 6.94 4.847 11.139 4.844 4.196 0 7.912-1.615 11.14-4.844l74.061-74.06 24.787-24.782c3.229-3.228 4.84-6.946 4.838-11.144.005-4.196-1.61-7.91-4.842-11.14-2.874-2.875-6.317-4.33-10.328-4.37zm48.977 49.31c-4.199.003-7.913 1.619-11.139 4.844l-74.06 74.06-24.788 24.788c-3.228 3.228-4.843 6.943-4.843 11.139 0 4.2 1.615 7.912 4.843 11.14 3.068 3.068 6.782 4.52 11.141 4.358 4.196 0 7.83-1.534 10.898-4.602l98.844-98.844c3.068-3.068 4.599-6.7 4.602-10.898.16-4.356-1.294-8.07-4.362-11.139-3.228-3.228-6.938-4.843-11.136-4.845zm223.457 10.292c-16.436 0-31.617 3.654-45.543 10.96-13.93 7.308-25.117 17.81-33.563 31.506-8.219 13.697-12.328 29.793-12.328 48.288 0 18.494 4.109 34.59 12.328 48.287 8.446 13.697 19.634 24.198 33.563 31.506 13.926 7.307 29.108 10.96 45.547 10.96 12.1 0 22.486-1.484 31.162-4.453 8.904-3.197 17.124-7.192 24.658-11.984 4.566-2.968 6.848-6.964 6.848-11.988 0-3.425-1.369-6.506-4.108-9.244-2.51-2.969-5.477-4.454-8.904-4.454-2.512 0-5.024.686-7.533 2.057-7.534 3.88-14.042 6.734-19.522 8.56-5.253 1.6-11.874 2.401-19.861 2.401-19.636 0-35.047-5.594-46.235-16.781-11.187-11.417-16.78-26.372-16.78-44.864 0-18.494 5.593-33.336 16.78-44.523 11.188-11.414 26.599-17.121 46.235-17.121 7.99 0 14.61.912 19.861 2.736 5.48 1.6 11.988 4.34 19.522 8.221 2.51 1.37 5.02 2.057 7.533 2.057 3.424 0 6.392-1.372 8.904-4.114 2.74-2.965 4.108-6.16 4.108-9.588 0-5.021-2.282-9.016-6.848-11.984-7.534-4.795-15.754-8.677-24.658-11.643-8.676-3.2-19.064-4.798-31.166-4.798zm1096.756 0c-16.436 0-31.62 3.654-45.545 10.96-13.927 7.308-25.112 17.81-33.56 31.506-8.22 13.697-12.331 29.793-12.331 48.288 0 18.494 4.11 34.59 12.33 48.287 8.449 13.697 19.634 24.198 33.56 31.506 13.927 7.307 29.111 10.96 45.55 10.96 12.099 0 22.486-1.484 31.162-4.453 8.904-3.197 17.122-7.192 24.656-11.984 4.568-2.968 6.853-6.964 6.853-11.988 0-3.425-1.371-6.506-4.113-9.244-2.51-2.969-5.477-4.454-8.904-4.454-2.51 0-5.021.686-7.533 2.057-7.534 3.88-14.04 6.734-19.52 8.56-5.251 1.6-11.873 2.401-19.863 2.401-19.636 0-35.047-5.594-46.235-16.781-11.187-11.417-16.78-26.372-16.78-44.864 0-18.494 5.593-33.336 16.78-44.523 11.188-11.414 26.599-17.121 46.235-17.121 7.99 0 14.612.912 19.863 2.736 5.48 1.6 11.986 4.34 19.52 8.221 2.512 1.37 5.023 2.057 7.533 2.057 3.427 0 6.395-1.372 8.904-4.114 2.742-2.965 4.113-6.16 4.113-9.588 0-5.021-2.285-9.016-6.853-11.984-7.534-4.795-15.752-8.677-24.656-11.643-8.676-3.2-19.064-4.798-31.166-4.798zm-431.159.004c-18.035 0-33.216 4.222-45.543 12.668-12.328 8.448-21.462 19.521-27.398 33.218-5.936 13.7-8.904 28.654-8.904 44.864 0 28.767 7.761 51.142 23.285 67.125 15.753 15.753 37.559 23.628 65.414 23.628 13.697 0 24.883-1.255 33.56-3.767 8.676-2.51 17.467-6.277 26.371-11.3 5.934-3.425 8.9-7.65 8.9-12.67 0-3.884-1.37-7.08-4.108-9.593-2.74-2.51-5.935-3.765-9.588-3.765-2.283 0-4.338.457-6.164 1.369a103.481 103.481 0 0 1-21.235 7.877c-7.078 1.827-15.409 2.74-24.996 2.74-18.036 0-32.077-4.453-42.123-13.357-10.046-8.902-15.984-21.344-17.81-37.327h116.095c4.795 0 8.562-1.484 11.301-4.453 2.968-2.968 4.453-6.622 4.453-10.96 0-15.524-3.195-29.793-9.588-42.807-6.392-13.244-15.753-23.745-28.082-31.506-12.329-7.99-26.943-11.984-43.84-11.984zm244.862 0c-18.036 0-33.217 4.222-45.543 12.668-12.332 8.448-21.466 19.521-27.403 33.218-5.936 13.7-8.904 28.654-8.904 44.864 0 28.767 7.763 51.142 23.29 67.125 15.752 15.753 37.555 23.628 65.407 23.628 13.7 0 24.888-1.255 33.563-3.767 8.675-2.51 17.464-6.277 26.369-11.3 5.936-3.425 8.904-7.65 8.904-12.67 0-3.884-1.368-7.08-4.107-9.593-2.742-2.51-5.938-3.765-9.592-3.765-2.28 0-4.335.457-6.162 1.369a103.465 103.465 0 0 1-21.232 7.877c-7.078 1.827-15.412 2.74-25.002 2.74-18.036 0-32.078-4.453-42.123-13.357-10.046-8.902-15.98-21.344-17.805-37.327h116.096c4.792 0 8.559-1.484 11.3-4.453 2.966-2.968 4.45-6.622 4.45-10.96 0-15.524-3.198-29.793-9.59-42.807-6.393-13.244-15.754-23.745-28.082-31.506-12.33-7.99-26.94-11.984-43.834-11.984zm-743.68 1.71c-4.336 0-8.103 1.484-11.3 4.45-2.969 2.97-4.452 6.624-4.452 10.96v97.262c0 12.327 2.396 23.627 7.191 33.903 5.022 10.272 12.101 18.378 21.235 24.314 9.36 5.937 20.317 8.904 32.873 8.904 13.7 0 25.573-2.854 35.619-8.564 10.046-5.707 19.407-13.354 28.082-22.941v14.04c0 4.337 1.484 8.104 4.45 11.301 3.2 2.969 6.966 4.452 11.3 4.452 4.339 0 7.99-1.483 10.959-4.452 2.968-3.197 4.453-6.965 4.453-11.304v-146.91c0-4.34-1.483-7.993-4.45-10.961-2.97-2.969-6.624-4.453-10.96-4.453-4.339 0-8.106 1.483-11.3 4.449-2.969 2.97-4.452 6.624-4.452 10.96v102.739c-7.992 10.046-16.554 18.038-25.686 23.975-8.904 5.936-19.064 8.904-30.478 8.904-25.114 0-37.67-13.928-37.67-41.783v-93.83c0-4.34-1.485-7.993-4.453-10.961-2.968-2.969-6.622-4.453-10.961-4.453zm498.822 24.655c7.763 0 15.412 1.827 22.946 5.48 7.533 3.427 13.812 8.908 18.834 16.442 5.25 7.534 8.218 16.894 8.904 28.082h-101.028c.686-11.188 3.54-20.548 8.561-28.082 5.024-7.534 11.304-13.015 18.838-16.442 7.534-3.653 15.182-5.48 22.945-5.48zm244.862 0c7.76 0 15.407 1.827 22.941 5.48 7.534 3.427 13.812 8.908 18.836 16.442 5.251 7.534 8.22 16.894 8.906 28.082h-101.027c.683-11.188 3.536-20.548 8.56-28.082 5.022-7.534 11.3-13.015 18.834-16.442 7.537-3.653 15.186-5.48 22.95-5.48zm-481.014 2.74c16.894 0 30.48 5.366 40.752 16.098 10.275 10.731 15.412 25.915 15.412 45.55 0 19.634-5.137 34.815-15.412 45.543-10.273 10.732-23.858 16.098-40.752 16.098-10.502 0-20.432-2.284-29.793-6.85-9.131-4.794-17.238-11.072-24.318-18.835v-71.918c7.077-7.761 15.184-13.924 24.318-18.493 9.36-4.795 19.29-7.193 29.793-7.193zm-603.361 10.143c-4.199.002-7.915 1.618-11.141 4.843l-74.06 74.06-24.786 24.792c-3.228 3.228-4.844 6.94-4.842 11.139-.002 4.198 1.611 7.907 4.842 11.138 3.066 3.066 6.781 4.52 11.143 4.36 4.193-.003 7.826-1.538 10.894-4.606l98.844-98.842c3.068-3.068 4.601-6.701 4.604-10.9.16-4.356-1.296-8.07-4.364-11.139-3.228-3.228-6.936-4.843-11.134-4.845z" style="font-weight:700;font-size:90.61px;line-height:1.25;font-family:&quot;Varela Round&quot;;-inkscape-font-specification:&quot;Varela Round Bold&quot;;letter-spacing:-4.53072px;word-spacing:-5.86879px;fill:#1e1f1d;stroke:#1e1f1d;stroke-width:1.474;stroke-miterlimit:4;stroke-dasharray:none;stroke-opacity:1" transform="scale(.26458)"/></svg>